{"title":"Rules.of.Engagement.S07E07.HDTV.XviD-Tallyortoby.avi","uid":8276167,"size":174316230,"categoryP":"video","categoryS":"tv_shows","magnet":"?xt=urn:btih:7d68ce756b05cd9d72701d05e347acdb580f1a7e&amp;dn=Rules.of.Engagement.S07E07.HDTV.XviD-Tallyortoby.avi&amp;tr=udp%3A%2F%2Ftracker.openbittorrent.com%3A80&amp;tr=udp%3A%2F%2Fopen.demonii.com%3A1337&amp;tr=udp%3A%2F%2Ftracker.coppersurfer.tk%3A6969&amp;tr=udp%3A%2F%2Fexodus.desync.com%3A6969","seeders":1,"leechers":0,"uploader":"Tallyortoby","files":1,"time":1363720587,"description":"Format                                   : AVI\nFormat/Info                              : Audio Video Interleave\nFile size                                : 166 MiB\nDuration                                 : 21mn 54s\nOverall bit rate                         : 1 061 Kbps\nMovie name                               : Rules.of.Engagement.S07E07.HDTV.XviD-Tallyortoby.mp4\nDirector                                 : created.with.SUPER(C)+Recorder.2013.55\nWriting application                      : SUPER(C)   \n\nVideo\nID                                       : 0\nFormat                                   : MPEG-4 Visual\nFormat profile                           : Advanced Simple@L5\nFormat settings, BVOP                    : No\nFormat settings, QPel                    : No\nFormat settings, GMC                     : No warppoints\nFormat settings, Matrix                  : Default (H.263)\nCodec ID                                 : XVID\nCodec ID/Hint                            : XviD\nDuration                                 : 21mn 54s\nBit rate                                 : 920 Kbps\nWidth                                    : 640 pixels\nHeight                                   : 360 pixels\nDisplay aspect ratio                     : 16:9\nFrame rate                               : 25.000 fps\nColor space                              : YUV\nChroma subsampling                       : 4:2:0\nBit depth                                : 8 bits\nScan type                                : Progressive\nCompression mode                         : Lossy\nBits/(Pixel*Frame)                       : 0.160\nStream size                              : 144 MiB (87%)\nWriting library                          : SUPER(C)   \n\nAudio\nID                                       : 1\nFormat                                   : MPEG Audio\nFormat version                           : Version 1\nFormat profile                           : Layer 3\nMode                                     : Joint stereo\nMode extension                           : MS Stereo\nCodec ID                                 : 55\nCodec ID/Hint                            : MP3\nDuration                                 : 21mn 54s\nBit rate mode                            : Constant\nBit rate                                 : 128 Kbps\nChannel(s)                               : 2 channels\nSampling rate                            : 48.0 KHz\nCompression mode                         : Lossy\nStream size                              : 20.1 MiB (12%)\nAlignment                                : Aligned on interleaves\nInterleave, duration                     : 24 ms (0.60 video frame)\n","torrent":{"xt":"urn:btih:7d68ce756b05cd9d72701d05e347acdb580f1a7e","amp;dn":"Rules.of.Engagement.S07E07.HDTV.XviD-Tallyortoby.avi","amp;tr":["udp%3A%2F%2Ftracker.openbittorrent.com%3A80","udp%3A%2F%2Fopen.demonii.com%3A1337","udp%3A%2F%2Ftracker.coppersurfer.tk%3A6969","udp%3A%2F%2Fexodus.desync.com%3A6969"],"infoHash":"7d68ce756b05cd9d72701d05e347acdb580f1a7e","infoHashBuffer":{"type":"Buffer","data":[125,104,206,117,107,5,205,157,114,112,29,5,227,71,172,219,88,15,26,126]},"announce":[],"urlList":[]}}